<svg width="24" height="24" fill="none" xmlns="http://www.w3.org/2000/svg"><g filter="url(#filter0_d)"><mask id="a" maskUnits="userSpaceOnUse" x="4" y="4" width="16" height="16" fill="#000"><path fill="#fff" d="M4 4h16v16H4z"/><path fill-rule="evenodd" clip-rule="evenodd" d="M10.03 19s-2.219-1.699-3-3c-.78-1.301-2.26-2.959-2-4 .26-1.041 1.22-1.37 2-.588.781.78 1.307 2.472 1.828 2.212.52-.26.13-2.733-.39-4.164C7.946 8.028 7.403 5 8.467 5 9.53 5 9.53 6 10.03 7.5s.11 3.5.5 3.5.54-.35.54-1a.89.89 0 01.105-.45c.188-.332.633-.48 1.355-.48.992 0 .5 1.93 1 1.93s.5.041.5-1 .464-.93 1.464-.93S16.01 11 16.53 11s0-1 .5-1 1 .158 1 2.5.281 2.459-.5 3.5l-1.5 2s0 1-.536 1-.813-1-1.464-1c-.65 0-1 1-1 1h-3zm6-2v-4h-1v4h1zm-3-1c0 .27.232 1 .5 1 .277 0 .5-.725.5-1v-2c0-.27-.232-1-.5-1-.276 0-.5.725-.5 1v2zm-2 0c0 .27.232 1 .5 1 .277 0 .5-.725.5-1v-2c0-.27-.232-1-.5-1-.276 0-.5.725-.5 1v2z"/></mask><path fill-rule="evenodd" clip-rule="evenodd" d="M10.03 19s-2.219-1.699-3-3c-.78-1.301-2.26-2.959-2-4 .26-1.041 1.22-1.37 2-.588.781.78 1.307 2.472 1.828 2.212.52-.26.13-2.733-.39-4.164C7.946 8.028 7.403 5 8.467 5 9.53 5 9.53 6 10.03 7.5s.11 3.5.5 3.5.54-.35.54-1a.89.89 0 01.105-.45c.188-.332.633-.48 1.355-.48.992 0 .5 1.93 1 1.93s.5.041.5-1 .464-.93 1.464-.93S16.01 11 16.53 11s0-1 .5-1 1 .158 1 2.5.281 2.459-.5 3.5l-1.5 2s0 1-.536 1-.813-1-1.464-1c-.65 0-1 1-1 1h-3zm6-2v-4h-1v4h1zm-3-1c0 .27.232 1 .5 1 .277 0 .5-.725.5-1v-2c0-.27-.232-1-.5-1-.276 0-.5.725-.5 1v2zm-2 0c0 .27.232 1 .5 1 .277 0 .5-.725.5-1v-2c0-.27-.232-1-.5-1-.276 0-.5.725-.5 1v2z" fill="#fff"/><path d="M10.03 19l-.608.794.27.206h.338v-1zm-3-3l-.857.515L7.03 16zm-2-4l.97.242L5.03 12zm2-.588l-.707.707.707-.707zm1.828 2.212l-.448-.895.448.895zm-.39-4.164l.939-.342-.94.342zm0-4.46V4v1zm2.062 6v1-1zm.54-1h-1 1zm.105-.45l-.87-.494.87.494zm1.355-.48v-1 1zm1 1.93v-1 1zm.5-1h-1 1zm1.464-.93v-1 1zM16.53 11v1-1zm.5-1V9v1zm1 2.5h-1 1zm-2 5.5l-.8-.6-.2.267V18h1zm-.536 1v-1 1zm-1.464-1v-1 1zm-1 1v1h.71l.234-.67-.944-.33zm3-2v1h1v-1h-1zm0-4h1v-1h-1v1zm-1 0v-1h-1v1h1zm0 4h-1v1h1v-1zm-5 2l.608-.794-.004-.003a2.352 2.352 0 01-.082-.064 22.17 22.17 0 01-1.06-.894c-.65-.585-1.298-1.249-1.604-1.76l-1.715 1.03c.474.79 1.326 1.627 1.981 2.216a24.195 24.195 0 001.238 1.04l.022.016.006.005.001.001h.001L10.03 19zm-2.142-3.514a21.133 21.133 0 00-.713-1.081c-.248-.36-.482-.7-.683-1.026a4.658 4.658 0 01-.426-.832c-.084-.235-.063-.316-.066-.305l-1.94-.485c-.133.532-.025 1.05.12 1.459.15.419.376.833.608 1.21.234.38.5.765.74 1.114.249.36.469.681.645.975l1.715-1.03zM6 12.242c.069-.272.176-.278.131-.264-.016.005-.021 0 0 .005a.51.51 0 01.192.136l1.414-1.414c-.588-.588-1.394-.887-2.198-.638-.785.243-1.287.922-1.479 1.69l1.94.486zm.323-.123c.277.277.512.725.862 1.305.143.237.338.55.571.782.12.12.311.282.577.374.304.106.65.099.972-.062L8.41 12.73a.758.758 0 01.58-.038c.134.047.193.114.178.098-.036-.036-.118-.146-.27-.397-.239-.396-.657-1.184-1.16-1.687L6.323 12.12zm2.982 2.4a1.35 1.35 0 00.635-.719c.087-.217.126-.444.145-.638.038-.393.013-.851-.04-1.298-.105-.9-.35-1.952-.638-2.746l-1.88.684c.232.637.443 1.537.533 2.296.045.383.053.68.034.87-.01.096-.022.116-.01.09a.656.656 0 01.326-.329l.895 1.79zm.102-5.401a10.421 10.421 0 01-.536-2.497c-.032-.431-.006-.71.033-.842.019-.062.017-.012-.058.062-.1.1-.245.159-.379.159V4c-.4 0-.76.154-1.032.425a1.832 1.832 0 00-.449.787c-.142.48-.147 1.048-.11 1.553.075 1.038.363 2.244.651 3.037l1.88-.684zM8.467 6c.1 0 .076.02.025-.018-.034-.026-.007-.026.055.113.064.145.127.345.216.656.083.292.185.664.319 1.065l1.897-.632c-.116-.349-.202-.664-.293-.982a7.053 7.053 0 00-.313-.922c-.133-.299-.337-.642-.686-.902C9.321 4.105 8.899 4 8.467 4v2zm.615 1.816c.195.585.226 1.311.24 2.016.006.312.01.678.043.955.016.13.05.347.15.557.11.227.418.656 1.015.656v-2c.5 0 .735.367.789.478.045.095.041.145.031.063-.018-.145-.021-.372-.029-.748-.013-.67-.037-1.694-.342-2.61l-1.897.633zM10.53 12c.252 0 .525-.058.778-.216a1.48 1.48 0 00.53-.586c.197-.387.232-.835.232-1.198h-2c0 .128-.008.215-.017.271-.01.06-.016.055.003.019a.538.538 0 01.194-.203.545.545 0 01.28-.087v2zm1.54-2c0-.024.002-.028 0-.018a.243.243 0 01-.026.062l-1.739-.988a1.892 1.892 0 00-.235.944h2zm-.026.044c-.054.095-.12.106-.062.085.076-.026.242-.06.548-.06v-2c-.74 0-1.738.13-2.225.987l1.74.988zm.486.025a.45.45 0 01-.232-.075.411.411 0 01-.136-.135s.03.071.061.306c.018.139.052.515.103.748.028.127.087.356.235.571.181.264.51.516.97.516v-2a.83.83 0 01.677.35c.076.11.083.188.071.134-.028-.13-.028-.236-.073-.58-.033-.247-.096-.658-.299-1.02a1.599 1.599 0 00-.53-.574 1.554 1.554 0 00-.847-.24v2zm1 1.931c.056 0 .28.007.463-.025a1.173 1.173 0 00.861-.622c.142-.271.16-.562.167-.703.01-.177.01-.402.01-.65h-2c0 .273-.001.432-.007.54-.003.052-.006.065-.004.055a.592.592 0 01.061-.167.827.827 0 01.564-.423c.043-.007.064-.006.031-.005h-.146v2zm1.5-2c0-.095.006-.155.01-.19.006-.033.009-.027-.004.004a.507.507 0 01-.257.25c-.037.016-.054.017-.034.014.02-.004.06-.008.13-.01s.153-.002.26-.001l.359.002v-2c-.201 0-.48-.007-.683 0a2.259 2.259 0 00-.816.155 1.488 1.488 0 00-.794.793c-.14.321-.17.67-.17.983h2zm.464.07a.44.44 0 01-.224-.072.402.402 0 01-.134-.131c-.006-.011.004.004.02.066.016.06.031.14.046.243.02.142.058.517.115.756.031.13.096.36.253.575.19.26.519.493.96.493v-2a.82.82 0 01.655.328c.08.108.089.188.077.137-.03-.123-.031-.23-.08-.572-.035-.246-.103-.657-.31-1.018a1.606 1.606 0 00-.533-.568 1.565 1.565 0 00-.845-.238v2zM16.53 12c.23 0 .503-.058.75-.242a1.22 1.22 0 00.423-.59 1.58 1.58 0 00.08-.421c.007-.101.005-.2.005-.257v-.121c.002-.024.002.018-.02.089a.778.778 0 01-.262.37.78.78 0 01-.476.172V9a1.22 1.22 0 00-.763.258c-.24.19-.352.427-.406.597a1.64 1.64 0 00-.07.41 3.589 3.589 0 00-.003.245v.11c-.002.02-.002-.027.024-.101a.774.774 0 01.27-.363.761.761 0 01.448-.156v2zm.5-1c.086 0 .042.01-.034-.023-.104-.046-.15-.115-.15-.114.014.024.066.134.11.415.044.275.074.667.074 1.222h2c0-1.18-.115-2.041-.441-2.62a1.68 1.68 0 00-.79-.735A1.884 1.884 0 0017.03 9v2zm0 1.5c0 .607.019 1.07.033 1.428.015.375.022.585.012.75a.732.732 0 01-.056.27c-.037.086-.11.214-.289.452l1.6 1.2a4.2 4.2 0 00.526-.861c.138-.321.196-.624.215-.94.018-.288.004-.612-.01-.95-.014-.354-.03-.784-.03-1.349h-2zm-.3 2.9a25005.864 25005.864 0 00-1.375 1.834l-.092.123-.024.032-.007.008-.001.002v.001l.8.6.8.6.001-.003.007-.008.024-.032.092-.123A1583.335 1583.335 0 0118.33 16.6l-1.6-1.2zm-.7 2.6h-1v-.006s0-.001 0 0a.684.684 0 01-.004.073 1.08 1.08 0 01-.029.174c-.017.063-.021.037.028-.024a.63.63 0 01.469-.217v2c.497 0 .865-.251 1.09-.53.199-.248.295-.524.345-.711a3.074 3.074 0 00.101-.747V18h-1zm-.536 0c.199 0 .304.098.28.078a2.61 2.61 0 01-.215-.234 3.286 3.286 0 00-.503-.49A1.702 1.702 0 0014.03 17v2c-.115 0-.18-.05-.17-.042.029.021.077.068.19.198.084.097.25.297.437.453.2.168.54.391 1.007.391v-2zm-1.464-1c-.86 0-1.37.641-1.573.94a3.446 3.446 0 00-.36.7l-.007.018a.958.958 0 01-.003.01v.001l.943.331.944.33v.003l-.002.003s0 .001 0 0l.004-.01a1.381 1.381 0 01.198-.344.309.309 0 01.028-.027c-.001 0-.063.045-.172.045v-2zm-1 1h-3v2h3v-2zm4-1v-4h-2v4h2zm-1-5h-1v2h1v-2zm-2 1v4h2v-4h-2zm1 5h1v-2h-1v2zm-3-2c0 .317.108.705.229.991.064.153.163.349.306.524.116.141.437.485.965.485v-2a.82.82 0 01.44.126.603.603 0 01.143.122c.025.03.014.027-.012-.036a1.216 1.216 0 01-.071-.24c-.002-.014 0-.003 0 .028h-2zm1.5 2c.52 0 .841-.33.965-.48.147-.177.246-.376.31-.53.123-.291.225-.677.225-.99h-2c0-.04.005-.028-.012.042a1.17 1.17 0 01-.056.174c-.026.062-.035.062-.007.029a.607.607 0 01.146-.125.813.813 0 01.43-.12v2zm1.5-2v-2h-2v2h2zm0-2c0-.317-.107-.705-.228-.991a2.16 2.16 0 00-.307-.524c-.115-.141-.436-.485-.965-.485v2a.82.82 0 01-.44-.126.606.606 0 01-.142-.122c-.025-.03-.015-.027.012.036a1.204 1.204 0 01.07.24c.003.014 0 .003 0-.028h2zm-1.5-2c-.52 0-.84.33-.964.48a2.122 2.122 0 00-.311.53c-.123.291-.225.677-.225.99h2c0 .04-.004.028.013-.042a1.17 1.17 0 01.056-.174c.026-.062.034-.062.007-.029a.607.607 0 01-.146.125.813.813 0 01-.43.12v-2zm-1.5 2v2h2v-2h-2zm-2 2c0 .317.108.705.229.991.064.153.163.349.306.524.116.141.437.485.965.485v-2a.82.82 0 01.44.126.603.603 0 01.143.122c.025.03.014.027-.012-.036a1.216 1.216 0 01-.071-.24c-.002-.014 0-.003 0 .028h-2zm1.5 2c.52 0 .841-.33.965-.48.147-.177.246-.376.31-.53.123-.291.225-.677.225-.99h-2c0-.04.005-.028-.012.042a1.17 1.17 0 01-.056.174c-.026.062-.035.062-.007.029a.607.607 0 01.146-.125.813.813 0 01.43-.12v2zm1.5-2v-2h-2v2h2zm0-2c0-.317-.107-.705-.228-.991a2.16 2.16 0 00-.307-.524c-.115-.141-.436-.485-.965-.485v2a.82.82 0 01-.44-.126.606.606 0 01-.142-.122c-.025-.03-.015-.027.012.036a1.204 1.204 0 01.07.24c.003.014 0 .003 0-.028h2zm-1.5-2c-.52 0-.84.33-.964.48a2.122 2.122 0 00-.311.53c-.123.291-.225.677-.225.99h2c0 .04-.004.028.013-.042a1.17 1.17 0 01.056-.174c.026-.062.034-.062.007-.029a.607.607 0 01-.146.125.813.813 0 01-.43.12v-2zm-1.5 2v2h2v-2h-2z" fill="#000" mask="url(#a)"/></g><defs><filter id="filter0_d" x="2" y="3" width="19.079" height="20" filterUnits="userSpaceOnUse" color-interpolation-filters="sRGB"><feFlood flood-opacity="0" result="BackgroundImageFix"/><feColorMatrix in="SourceAlpha" values="0 0 0 0 0 0 0 0 0 0 0 0 0 0 0 0 0 0 127 0"/><feOffset dy="1"/><feGaussianBlur stdDeviation="1"/><feColorMatrix values="0 0 0 0 0 0 0 0 0 0 0 0 0 0 0 0 0 0 1 0"/><feBlend in2="BackgroundImageFix" result="effect1_dropShadow"/><feBlend in="SourceGraphic" in2="effect1_dropShadow" result="shape"/></filter></defs></svg>